<svg xmlns="http://www.w3.org/2000/svg" viewBox="0 0 512 512">
  <defs>
    <linearGradient id="g" x1="0" x2="1" y1="0" y2="1">
      <stop offset="0%" stop-color="#5e0000"/>
      <stop offset="100%" stop-color="#800000"/>
    </linearGradient>
    <filter id="s" x="-20%" y="-20%" width="140%" height="140%">
      <feDropShadow dx="0" dy="4" stdDeviation="8" flood-color="#3b0000" flood-opacity="0.35"/>
    </filter>
  </defs>
  <rect width="512" height="512" rx="96" ry="96" fill="url(#g)"/>
  <!-- Gold ring -->
  <circle cx="256" cy="256" r="168" fill="none" stroke="#D4AF37" stroke-width="18" opacity="0.9"/>
  <!-- Stylized initials: UV (Uni Vehicle) -->
  <g filter="url(#s)" fill="#D4AF37">
    <path d="M152 180h36v108c0 20 12 36 36 36s36-16 36-36V180h36v110c0 44-31 78-72 78s-72-34-72-78V180z"/>
    <path d="M294 180h42l54 150h-38l-10-30h-54l-10 30h-38l54-150zm5 92h34l-17-50-17 50z"/>
  </g>
</svg>

